<svg width="177" height="27" viewBox="0 0 177 27" fill="none" xmlns="http://www.w3.org/2000/svg">
<path d="M43.0953 16.5913C43.9075 17.5441 44.751 18.2782 45.6257 18.7936C46.516 19.3091 47.6016 19.5668 48.8824 19.5668C49.5697 19.5668 50.2257 19.4809 50.8505 19.3091C51.4909 19.1217 52.0142 18.8483 52.4203 18.4891C52.8421 18.1142 53.0529 17.6534 53.0529 17.1067C53.0529 16.3257 52.639 15.7634 51.8111 15.4198C50.9833 15.0761 49.8196 14.795 48.3201 14.5763C46.477 14.2951 45.0087 13.7797 43.9153 13.0299C42.822 12.2646 42.2753 11.1556 42.2753 9.70293C42.2753 8.71888 42.5642 7.87541 43.1422 7.17252C43.7357 6.46963 44.5323 5.93075 45.532 5.55587C46.5317 5.16538 47.6329 4.97013 48.8356 4.97013C50.3351 4.97013 51.6315 5.22005 52.7249 5.71988C53.8183 6.21971 54.6774 6.93042 55.3022 7.85198L53.5684 9.65607C53.0529 8.93756 52.3891 8.35963 51.5768 7.92227C50.7646 7.4693 49.8274 7.24281 48.7653 7.24281C47.6719 7.24281 46.7581 7.44587 46.024 7.85198C45.2899 8.24248 44.9228 8.79698 44.9228 9.51549C44.9228 10.359 45.3133 10.9603 46.0943 11.3196C46.8909 11.6632 47.9296 11.9366 49.2105 12.1396C50.0539 12.2646 50.8583 12.4286 51.6237 12.6316C52.4047 12.8347 53.0998 13.108 53.709 13.4517C54.3181 13.7797 54.8023 14.2014 55.1616 14.7169C55.5208 15.2323 55.7005 15.8727 55.7005 16.6381C55.7005 17.6846 55.4193 18.5984 54.857 19.3794C54.2947 20.1604 53.4903 20.7696 52.4437 21.2069C51.4128 21.6286 50.1867 21.8395 48.7653 21.8395C47.2502 21.8395 45.8834 21.5896 44.6651 21.0898C43.4467 20.5899 42.3768 19.7777 41.4552 18.6531L43.0953 16.5913Z" fill="black"/>
<path d="M72.0275 9.30462V21.6052H69.5908V19.5668C69.3096 19.9417 68.9113 20.301 68.3959 20.6446C67.8804 20.9882 67.2869 21.2772 66.6152 21.5115C65.9436 21.7302 65.2329 21.8395 64.4831 21.8395C63.1867 21.8395 62.0464 21.5662 61.0624 21.0195C60.0783 20.4728 59.3052 19.7152 58.7429 18.7468C58.1962 17.7784 57.9228 16.6772 57.9228 15.4432C57.9228 14.1936 58.2118 13.0924 58.7897 12.1396C59.3676 11.1712 60.1643 10.4136 61.1795 9.86694C62.2104 9.32024 63.3976 9.0469 64.7409 9.0469C65.8186 9.0469 66.7792 9.24995 67.6227 9.65607C68.4818 10.0466 69.1378 10.4995 69.5908 11.015V9.30462H72.0275ZM65.022 19.6137C65.9592 19.6137 66.7714 19.4341 67.4587 19.0748C68.1616 18.6999 68.7083 18.2001 69.0988 17.5753C69.4893 16.9505 69.6845 16.2398 69.6845 15.4432C69.6845 14.6466 69.4893 13.9359 69.0988 13.3111C68.7083 12.6863 68.1616 12.1943 67.4587 11.835C66.7714 11.4758 65.9592 11.2961 65.022 11.2961C64.1161 11.2961 63.3116 11.4758 62.6088 11.835C61.9215 12.1943 61.3748 12.6863 60.9687 13.3111C60.5782 13.9359 60.3829 14.6466 60.3829 15.4432C60.3829 16.2398 60.5782 16.9505 60.9687 17.5753C61.3748 18.2001 61.9215 18.6999 62.6088 19.0748C63.3116 19.4341 64.1161 19.6137 65.022 19.6137Z" fill="black"/>
<path d="M88.7815 9.30462V21.6052H86.3449V19.5668C86.0637 19.9417 85.6654 20.301 85.1499 20.6446C84.6345 20.9882 84.0409 21.2772 83.3693 21.5115C82.6976 21.7302 81.9869 21.8395 81.2372 21.8395C79.9407 21.8395 78.8005 21.5662 77.8165 21.0195C76.8324 20.4728 76.0592 19.7152 75.4969 18.7468C74.9502 17.7784 74.6769 16.6772 74.6769 15.4432C74.6769 14.1936 74.9658 13.0924 75.5438 12.1396C76.1217 11.1712 76.9183 10.4136 77.9336 9.86694C78.9645 9.32024 80.1516 9.0469 81.4949 9.0469C82.5727 9.0469 83.5333 9.24995 84.3768 9.65607C85.2359 10.0466 85.8919 10.4995 86.3449 11.015V9.30462H88.7815ZM81.7761 19.6137C82.7133 19.6137 83.5255 19.4341 84.2128 19.0748C84.9156 18.6999 85.4623 18.2001 85.8528 17.5753C86.2433 16.9505 86.4386 16.2398 86.4386 15.4432C86.4386 14.6466 86.2433 13.9359 85.8528 13.3111C85.4623 12.6863 84.9156 12.1943 84.2128 11.835C83.5255 11.4758 82.7133 11.2961 81.7761 11.2961C80.8701 11.2961 80.0657 11.4758 79.3628 11.835C78.6755 12.1943 78.1288 12.6863 77.7227 13.3111C77.3322 13.9359 77.137 14.6466 77.137 15.4432C77.137 16.2398 77.3322 16.9505 77.7227 17.5753C78.1288 18.2001 78.6755 18.6999 79.3628 19.0748C80.0657 19.4341 80.8701 19.6137 81.7761 19.6137Z" fill="black"/>
<path d="M93.4225 16.5913C94.2347 17.5441 95.0781 18.2782 95.9529 18.7936C96.8432 19.3091 97.9288 19.5668 99.2096 19.5668C99.8969 19.5668 100.553 19.4809 101.178 19.3091C101.818 19.1217 102.341 18.8483 102.747 18.4891C103.169 18.1142 103.38 17.6534 103.38 17.1067C103.38 16.3257 102.966 15.7634 102.138 15.4198C101.31 15.0761 100.147 14.795 98.6473 14.5763C96.8041 14.2951 95.3359 13.7797 94.2425 13.0299C93.1491 12.2646 92.6024 11.1556 92.6024 9.70293C92.6024 8.71888 92.8914 7.87541 93.4693 7.17252C94.0629 6.46963 94.8595 5.93075 95.8591 5.55587C96.8588 5.16538 97.96 4.97013 99.1627 4.97013C100.662 4.97013 101.959 5.22005 103.052 5.71988C104.145 6.21971 105.005 6.93042 105.629 7.85198L103.896 9.65607C103.38 8.93756 102.716 8.35963 101.904 7.92227C101.092 7.4693 100.155 7.24281 99.0924 7.24281C97.9991 7.24281 97.0853 7.44587 96.3512 7.85198C95.617 8.24248 95.25 8.79698 95.25 9.51549C95.25 10.359 95.6405 10.9603 96.4215 11.3196C97.2181 11.6632 98.2568 11.9366 99.5376 12.1396C100.381 12.2646 101.185 12.4286 101.951 12.6316C102.732 12.8347 103.427 13.108 104.036 13.4517C104.645 13.7797 105.129 14.2014 105.489 14.7169C105.848 15.2323 106.028 15.8727 106.028 16.6381C106.028 17.6846 105.746 18.5984 105.184 19.3794C104.622 20.1604 103.817 20.7696 102.771 21.2069C101.74 21.6286 100.514 21.8395 99.0924 21.8395C97.5773 21.8395 96.2106 21.5896 94.9922 21.0898C93.7739 20.5899 92.7039 19.7777 91.7824 18.6531L93.4225 16.5913Z" fill="black"/>
<path d="M128.974 19.1685V21.6052H116.931V5.20443H119.462V19.1685H128.974Z" fill="black"/>
<path d="M145.437 9.30462V21.6052H143V19.5668C142.719 19.9417 142.32 20.301 141.805 20.6446C141.289 20.9882 140.696 21.2772 140.024 21.5115C139.353 21.7302 138.642 21.8395 137.892 21.8395C136.596 21.8395 135.455 21.5662 134.471 21.0195C133.487 20.4728 132.714 19.7152 132.152 18.7468C131.605 17.7784 131.332 16.6772 131.332 15.4432C131.332 14.1936 131.621 13.0924 132.199 12.1396C132.777 11.1712 133.573 10.4136 134.589 9.86694C135.619 9.32024 136.807 9.0469 138.15 9.0469C139.228 9.0469 140.188 9.24995 141.032 9.65607C141.891 10.0466 142.547 10.4995 143 11.015V9.30462H145.437ZM138.431 19.6137C139.368 19.6137 140.18 19.4341 140.868 19.0748C141.571 18.6999 142.117 18.2001 142.508 17.5753C142.898 16.9505 143.094 16.2398 143.094 15.4432C143.094 14.6466 142.898 13.9359 142.508 13.3111C142.117 12.6863 141.571 12.1943 140.868 11.835C140.18 11.4758 139.368 11.2961 138.431 11.2961C137.525 11.2961 136.721 11.4758 136.018 11.835C135.331 12.1943 134.784 12.6863 134.378 13.3111C133.987 13.9359 133.792 14.6466 133.792 15.4432C133.792 16.2398 133.987 16.9505 134.378 17.5753C134.784 18.2001 135.331 18.6999 136.018 19.0748C136.721 19.4341 137.525 19.6137 138.431 19.6137Z" fill="black"/>
<path d="M156.567 9.0469C157.833 9.0469 158.965 9.32024 159.965 9.86694C160.964 10.398 161.761 11.1478 162.355 12.1162C162.948 13.069 163.245 14.1702 163.245 15.4198C163.245 16.6694 162.948 17.7784 162.355 18.7468C161.777 19.7152 160.98 20.4728 159.965 21.0195C158.949 21.5662 157.801 21.8395 156.521 21.8395C155.521 21.8395 154.607 21.6521 153.779 21.2772C152.967 20.9023 152.311 20.4806 151.811 20.012V21.5349H149.398V4.26724H151.811V10.9916C152.28 10.4917 152.936 10.0466 153.779 9.65607C154.623 9.24995 155.552 9.0469 156.567 9.0469ZM156.239 11.2727C155.334 11.2727 154.521 11.4523 153.803 11.8116C153.1 12.1709 152.545 12.6629 152.139 13.2877C151.749 13.9125 151.554 14.6232 151.554 15.4198C151.554 16.2164 151.749 16.9349 152.139 17.5753C152.545 18.2001 153.1 18.6999 153.803 19.0748C154.521 19.4341 155.334 19.6137 156.239 19.6137C157.161 19.6137 157.965 19.4341 158.653 19.0748C159.356 18.6999 159.902 18.2001 160.293 17.5753C160.699 16.9349 160.902 16.2164 160.902 15.4198C160.902 14.6232 160.699 13.9125 160.293 13.2877C159.902 12.6629 159.356 12.1709 158.653 11.8116C157.965 11.4523 157.161 11.2727 156.239 11.2727Z" fill="black"/>
<path d="M175.357 12.6082C174.794 12.1552 174.123 11.7804 173.342 11.4836C172.561 11.1868 171.827 11.0384 171.139 11.0384C170.702 11.0384 170.241 11.0775 169.757 11.1556C169.288 11.2337 168.882 11.3821 168.539 11.6007C168.211 11.8038 168.047 12.1084 168.047 12.5145C168.062 12.8737 168.226 13.1705 168.539 13.4048C168.867 13.6391 169.296 13.8344 169.827 13.9906C170.358 14.1311 170.944 14.2639 171.584 14.3889C172.209 14.4982 172.826 14.6388 173.435 14.8106C174.06 14.9824 174.615 15.2011 175.099 15.4666C175.599 15.7165 175.997 16.0524 176.294 16.4741C176.591 16.8802 176.739 17.3879 176.739 17.997C176.739 18.8249 176.489 19.5278 175.989 20.1057C175.505 20.668 174.857 21.0976 174.045 21.3943C173.232 21.6911 172.35 21.8395 171.397 21.8395C170.194 21.8395 169.062 21.6755 168 21.3475C166.953 21.0038 166.071 20.4103 165.352 19.5668L166.992 18.1142C167.523 18.6453 168.148 19.067 168.867 19.3794C169.585 19.6762 170.405 19.8246 171.327 19.8246C171.748 19.8246 172.194 19.7855 172.662 19.7074C173.146 19.6137 173.553 19.4575 173.881 19.2388C174.209 19.0045 174.373 18.6843 174.373 18.2782C174.373 17.9189 174.209 17.63 173.881 17.4113C173.553 17.1926 173.115 17.0208 172.568 16.8958C172.022 16.7553 171.436 16.6303 170.811 16.521C169.905 16.3335 169.054 16.1149 168.257 15.8649C167.476 15.5994 166.844 15.2167 166.36 14.7169C165.875 14.217 165.633 13.5142 165.633 12.6082C165.633 11.8741 165.875 11.2415 166.36 10.7104C166.859 10.1793 167.515 9.77322 168.328 9.49206C169.156 9.19529 170.069 9.0469 171.069 9.0469C171.694 9.0469 172.35 9.11719 173.037 9.25776C173.74 9.38272 174.412 9.59359 175.052 9.89037C175.692 10.1715 176.231 10.5464 176.669 11.015L175.357 12.6082Z" fill="black"/>
<path fill-rule="evenodd" clip-rule="evenodd" d="M43.0909 16.3294C43.1691 16.3281 43.2438 16.3618 43.2946 16.4214C44.0919 17.3567 44.9135 18.0698 45.7577 18.5675C46.5994 19.0545 47.6369 19.305 48.8824 19.305C49.5469 19.305 50.1788 19.222 50.779 19.0572C51.3897 18.8782 51.8756 18.6212 52.2466 18.2931C52.6143 17.9662 52.7911 17.5758 52.7911 17.1067C52.7911 16.7651 52.7015 16.4854 52.5316 16.2545C52.3598 16.0212 52.0929 15.8203 51.7108 15.6616C50.9121 15.3301 49.7729 15.0528 48.2823 14.8354L48.2806 14.8352C46.4134 14.5503 44.9036 14.0251 43.7673 13.2459L43.7652 13.2445C42.5948 12.4252 42.0134 11.2322 42.0134 9.70293C42.0134 8.66351 42.3202 7.75989 42.9399 7.00621L42.9421 7.00357C43.5686 6.26168 44.4043 5.69935 45.4384 5.3113C46.4714 4.90804 47.6048 4.70826 48.8356 4.70826C50.3636 4.70826 51.6989 4.9629 52.8338 5.48172C53.9672 5.99985 54.8651 6.74059 55.5189 7.70503C55.5883 7.80737 55.5767 7.94429 55.491 8.03344L53.7572 9.83752C53.7033 9.89361 53.6272 9.92283 53.5496 9.91726C53.472 9.9117 53.4009 9.87192 53.3556 9.80871C52.8644 9.12399 52.2314 8.57214 51.4527 8.15284C51.4519 8.15241 51.4511 8.15197 51.4503 8.15153L51.4493 8.15098C50.6813 7.72268 49.7892 7.50468 48.7653 7.50468C47.7032 7.50468 46.8361 7.70201 46.1508 8.08113C46.1495 8.08182 46.1483 8.0825 46.147 8.08318C45.482 8.43688 45.1847 8.91097 45.1847 9.51549C45.1847 9.89569 45.2722 10.2053 45.4353 10.4565C45.5982 10.7073 45.8479 10.9175 46.2009 11.0804C46.9696 11.4115 47.9836 11.6799 49.2501 11.8808C50.1019 12.007 50.9153 12.1728 51.6903 12.3784C52.4887 12.586 53.2044 12.8667 53.8354 13.2223C54.4759 13.5676 54.9919 14.0154 55.3764 14.5671C55.7724 15.1353 55.9623 15.8311 55.9623 16.6381C55.9623 17.7345 55.6668 18.7029 55.0695 19.5324C54.4742 20.3592 53.6278 20.9959 52.5447 21.4485L52.5429 21.4493C51.4731 21.8869 50.2117 22.1014 48.7653 22.1014C47.2212 22.1014 45.82 21.8466 44.5657 21.332C43.3031 20.814 42.1988 19.9737 41.2527 18.819C41.1745 18.7236 41.1735 18.5866 41.2503 18.49L42.8904 16.4282C42.9391 16.367 43.0126 16.3308 43.0909 16.3294ZM53.709 13.4517C53.0998 13.108 52.4047 12.8347 51.6237 12.6316C50.8583 12.4286 50.0539 12.2646 49.2105 12.1396C47.9296 11.9366 46.8909 11.6632 46.0943 11.3196C45.3133 10.9603 44.9228 10.359 44.9228 9.51549C44.9228 8.79698 45.2899 8.24248 46.024 7.85198C46.7581 7.44587 47.6719 7.24281 48.7653 7.24281C49.8274 7.24281 50.7646 7.4693 51.5768 7.92227C52.3076 8.31577 52.9183 8.82306 53.4088 9.44416C53.4635 9.51338 53.5167 9.58402 53.5684 9.65607L55.3022 7.85198C54.6774 6.93042 53.8183 6.21971 52.7249 5.71988C51.6315 5.22005 50.3351 4.97013 48.8356 4.97013C47.6329 4.97013 46.5317 5.16538 45.532 5.55587C44.5323 5.93075 43.7357 6.46963 43.1422 7.17252C42.5642 7.87541 42.2753 8.71888 42.2753 9.70293C42.2753 11.1556 42.822 12.2646 43.9153 13.0299C45.0087 13.7797 46.477 14.2951 48.3201 14.5763C49.8196 14.795 50.9833 15.0761 51.8111 15.4198C52.639 15.7634 53.0529 16.3257 53.0529 17.1067C53.0529 17.6534 52.8421 18.1142 52.4203 18.4891C52.0142 18.8483 51.4909 19.1217 50.8505 19.3091C50.2257 19.4809 49.5697 19.5668 48.8824 19.5668C47.6016 19.5668 46.516 19.3091 45.6257 18.7936C44.8135 18.3151 44.0283 17.6479 43.27 16.7923C43.2116 16.7264 43.1534 16.6594 43.0953 16.5913L41.4552 18.6531C42.3768 19.7777 43.4467 20.5899 44.6651 21.0898C45.8834 21.5896 47.2502 21.8395 48.7653 21.8395C50.1867 21.8395 51.4128 21.6286 52.4437 21.2069C53.4903 20.7696 54.2947 20.1604 54.857 19.3794C55.4193 18.5984 55.7005 17.6846 55.7005 16.6381C55.7005 15.8727 55.5208 15.2323 55.1616 14.7169C54.8023 14.2014 54.3181 13.7797 53.709 13.4517ZM72.0275 9.04275C72.1721 9.04275 72.2894 9.16 72.2894 9.30462V21.6052C72.2894 21.7498 72.1721 21.8671 72.0275 21.8671H69.5908C69.4462 21.8671 69.3289 21.7498 69.3289 21.6052V20.2453C69.1017 20.4587 68.8385 20.6642 68.5411 20.8625C68.0049 21.22 67.391 21.5182 66.7015 21.7587C66.7006 21.759 66.6998 21.7593 66.699 21.7596C66.6981 21.7599 66.6972 21.7602 66.6963 21.7605C65.9969 21.9882 65.2587 22.1014 64.4831 22.1014C63.149 22.1014 61.9637 21.8198 60.9352 21.2484C59.9101 20.6789 59.1026 19.8878 58.5164 18.8783L58.5148 18.8755C57.9436 17.8636 57.661 16.7172 57.661 15.4432C57.661 14.152 57.96 13.003 58.5653 12.0046C59.168 10.995 59.9997 10.2048 61.0554 9.63637L61.0569 9.63558C62.1309 9.06601 63.3613 8.78503 64.7409 8.78503C65.8509 8.78503 66.8504 8.99413 67.7337 9.41886C68.3652 9.70615 68.8989 10.0304 69.3289 10.3945V9.30462C69.3289 9.16 69.4462 9.04275 69.5908 9.04275H72.0275ZM69.5908 11.015C69.51 10.923 69.4227 10.833 69.3289 10.745C68.8973 10.3399 68.3285 9.97689 67.6227 9.65607C66.7792 9.24995 65.8186 9.0469 64.7409 9.0469C63.3976 9.0469 62.2104 9.32024 61.1795 9.86694C60.1643 10.4136 59.3676 11.1712 58.7897 12.1396C58.2118 13.0924 57.9228 14.1936 57.9228 15.4432C57.9228 16.6772 58.1962 17.7784 58.7429 18.7468C59.3052 19.7152 60.0783 20.4728 61.0624 21.0195C62.0464 21.5662 63.1867 21.8395 64.4831 21.8395C65.2329 21.8395 65.9436 21.7302 66.6152 21.5115C67.2869 21.2772 67.8804 20.9882 68.3959 20.6446C68.7679 20.3966 69.079 20.1404 69.3289 19.8761C69.4253 19.7742 69.5126 19.6711 69.5908 19.5668V21.6052H72.0275V9.30462H69.5908V11.015ZM67.3395 12.0682L67.3374 12.0671C66.6946 11.7311 65.9257 11.558 65.022 11.558C64.1518 11.558 63.3897 11.7302 62.729 12.0677C62.0812 12.4065 61.5698 12.8676 61.1895 13.4519C60.828 14.0312 60.6448 14.6924 60.6448 15.4432C60.6448 16.194 60.828 16.8552 61.1895 17.4345C61.57 18.0192 62.0821 18.4887 62.7311 18.8432C63.3912 19.18 64.1527 19.3518 65.022 19.3518C65.9253 19.3518 66.6939 19.1789 67.3365 18.8432C68.0018 18.4882 68.5127 18.019 68.8767 17.4365C69.2391 16.8567 69.4227 16.1949 69.4227 15.4432C69.4227 14.6915 69.2391 14.0297 68.8767 13.4499C68.5131 12.8682 68.0033 12.4075 67.3395 12.0682ZM67.4587 19.0748C66.7714 19.4341 65.9592 19.6137 65.022 19.6137C64.1161 19.6137 63.3116 19.4341 62.6088 19.0748C61.9215 18.6999 61.3748 18.2001 60.9687 17.5753C60.5782 16.9505 60.3829 16.2398 60.3829 15.4432C60.3829 14.6466 60.5782 13.9359 60.9687 13.3111C61.3748 12.6863 61.9215 12.1943 62.6088 11.835C63.3116 11.4758 64.1161 11.2961 65.022 11.2961C65.9592 11.2961 66.7714 11.4758 67.4587 11.835C68.1616 12.1943 68.7083 12.6863 69.0988 13.3111C69.4893 13.9359 69.6845 14.6466 69.6845 15.4432C69.6845 16.2398 69.4893 16.9505 69.0988 17.5753C68.7083 18.2001 68.1616 18.6999 67.4587 19.0748ZM88.7816 9.04275C88.9262 9.04275 89.0434 9.16 89.0434 9.30462V21.6052C89.0434 21.7498 88.9262 21.8671 88.7816 21.8671H86.3449C86.2002 21.8671 86.083 21.7498 86.083 21.6052V20.2453C85.8557 20.4587 85.5926 20.6642 85.2952 20.8625C84.7589 21.22 84.145 21.5182 83.4555 21.7587C83.4538 21.7593 83.4521 21.7599 83.4504 21.7605C82.751 21.9882 82.0128 22.1014 81.2372 22.1014C79.9031 22.1014 78.7178 21.8198 77.6893 21.2484C76.6642 20.6789 75.8566 19.8878 75.2705 18.8783L75.2689 18.8755C74.6976 17.8636 74.415 16.7172 74.415 15.4432C74.415 14.152 74.714 13.003 75.3194 12.0046C75.9221 10.995 76.7538 10.2048 77.8095 9.63637L77.8109 9.63558C78.885 9.06601 80.1153 8.78503 81.4949 8.78503C82.605 8.78503 83.6045 8.99413 84.4878 9.41886C85.1193 9.70615 85.653 10.0304 86.083 10.3945V9.30462C86.083 9.16 86.2002 9.04275 86.3449 9.04275H88.7816ZM86.3449 11.015C86.264 10.923 86.1767 10.833 86.083 10.745C85.6513 10.3399 85.0826 9.97689 84.3768 9.65607C83.5333 9.24995 82.5727 9.0469 81.4949 9.0469C80.1516 9.0469 78.9645 9.32024 77.9336 9.86694C76.9183 10.4136 76.1217 11.1712 75.5438 12.1396C74.9658 13.0924 74.6769 14.1936 74.6769 15.4432C74.6769 16.6772 74.9502 17.7784 75.4969 18.7468C76.0592 19.7152 76.8324 20.4728 77.8165 21.0195C78.8005 21.5662 79.9407 21.8395 81.2372 21.8395C81.9869 21.8395 82.6976 21.7302 83.3693 21.5115C84.0409 21.2772 84.6345 20.9882 85.1499 20.6446C85.522 20.3966 85.833 20.1404 86.083 19.8761C86.1793 19.7742 86.2666 19.6711 86.3449 19.5668V21.6052H88.7815V9.30462H86.3449V11.015ZM84.0936 12.0682L84.0914 12.0671C83.4487 11.7311 82.6797 11.558 81.7761 11.558C80.9059 11.558 80.1437 11.7302 79.4831 12.0677C78.8352 12.4065 78.3238 12.8676 77.9436 13.4519C77.582 14.0312 77.3989 14.6924 77.3989 15.4432C77.3989 16.194 77.582 16.8552 77.9436 17.4345C78.3241 18.0192 78.8362 18.4887 79.4851 18.8432C80.1453 19.18 80.9068 19.3518 81.7761 19.3518C82.6793 19.3518 83.4479 19.1789 84.0905 18.8432C84.7559 18.4882 85.2667 18.019 85.6308 17.4365C85.9931 16.8567 86.1767 16.1949 86.1767 15.4432C86.1767 14.6915 85.9931 14.0297 85.6308 13.4499C85.2672 12.8682 84.7574 12.4075 84.0936 12.0682ZM84.2128 19.0748C83.5255 19.4341 82.7133 19.6137 81.7761 19.6137C80.8701 19.6137 80.0657 19.4341 79.3628 19.0748C78.6755 18.6999 78.1288 18.2001 77.7227 17.5753C77.3322 16.9505 77.137 16.2398 77.137 15.4432C77.137 14.6466 77.3322 13.9359 77.7227 13.3111C78.1288 12.6863 78.6755 12.1943 79.3628 11.835C80.0657 11.4758 80.8701 11.2961 81.7761 11.2961C82.7133 11.2961 83.5255 11.4758 84.2128 11.835C84.9156 12.1943 85.4623 12.6863 85.8528 13.3111C86.2433 13.9359 86.4386 14.6466 86.4386 15.4432C86.4386 16.2398 86.2433 16.9505 85.8528 17.5753C85.4623 18.2001 84.9156 18.6999 84.2128 19.0748ZM93.418 16.3294C93.4962 16.3281 93.571 16.3618 93.6217 16.4214C94.4191 17.3568 95.2408 18.07 96.0851 18.5676C96.9267 19.0546 97.9642 19.305 99.2096 19.305C99.8741 19.305 100.506 19.222 101.106 19.0572C101.717 18.8781 102.203 18.6211 102.574 18.2929C102.942 17.966 103.118 17.5757 103.118 17.1067C103.118 16.7651 103.029 16.4854 102.859 16.2545C102.687 16.0212 102.42 15.8203 102.038 15.6616C101.239 15.3301 100.1 15.0528 98.6095 14.8354L98.6078 14.8352C96.7405 14.5503 95.2307 14.0251 94.0944 13.2459L94.0923 13.2445C92.922 12.4252 92.3405 11.2322 92.3405 9.70293C92.3405 8.66351 92.6473 7.75989 93.267 7.00621L93.2692 7.00357C93.8957 6.2617 94.7314 5.69938 95.7655 5.31133C96.7985 4.90804 97.9319 4.70826 99.1627 4.70826C100.691 4.70826 102.026 4.9629 103.161 5.48172C104.294 5.99985 105.192 6.74059 105.846 7.70503C105.915 7.80737 105.904 7.94429 105.818 8.03344L104.084 9.83752C104.03 9.89361 103.954 9.92283 103.877 9.91726C103.799 9.9117 103.728 9.87192 103.683 9.80871C103.192 9.12399 102.559 8.57214 101.78 8.15284C101.779 8.15223 101.778 8.15161 101.776 8.15098C101.008 7.72268 100.116 7.50468 99.0924 7.50468C98.0303 7.50468 97.1632 7.70201 96.4779 8.08113C96.4767 8.08182 96.4754 8.0825 96.4741 8.08318C95.8092 8.43688 95.5118 8.91097 95.5118 9.51549C95.5118 9.89569 95.5994 10.2053 95.7625 10.4565C95.9254 10.7073 96.175 10.9175 96.528 11.0804C97.2967 11.4115 98.3108 11.6799 99.5773 11.8808C100.429 12.007 101.242 12.1728 102.017 12.3783C102.816 12.586 103.532 12.8667 104.163 13.2223C104.803 13.5676 105.319 14.0154 105.704 14.5671C106.1 15.1353 106.289 15.8311 106.289 16.6381C106.289 17.7345 105.994 18.7029 105.397 19.5324C104.801 20.3592 103.955 20.9959 102.872 21.4485L102.87 21.4493C101.8 21.8869 100.539 22.1014 99.0924 22.1014C97.5483 22.1014 96.1471 21.8466 94.8929 21.332C93.6303 20.814 92.526 19.9737 91.5798 18.819C91.5016 18.7236 91.5006 18.5866 91.5774 18.49L93.2175 16.4282C93.2662 16.367 93.3398 16.3308 93.418 16.3294ZM104.036 13.4517C103.427 13.108 102.732 12.8347 101.951 12.6316C101.185 12.4286 100.381 12.2646 99.5376 12.1396C98.2568 11.9366 97.2181 11.6632 96.4215 11.3196C95.6405 10.9603 95.25 10.359 95.25 9.51549C95.25 8.79698 95.617 8.24248 96.3512 7.85198C97.0853 7.44587 97.9991 7.24281 99.0924 7.24281C100.155 7.24281 101.092 7.4693 101.904 7.92227C102.635 8.31577 103.245 8.82306 103.736 9.44416C103.791 9.51338 103.844 9.58402 103.896 9.65607L105.629 7.85198C105.005 6.93042 104.145 6.21971 103.052 5.71988C101.959 5.22005 100.662 4.97013 99.1627 4.97013C97.96 4.97013 96.8588 5.16538 95.8591 5.55587C94.8595 5.93075 94.0629 6.46963 93.4693 7.17252C92.8914 7.87541 92.6024 8.71888 92.6024 9.70293C92.6024 11.1556 93.1491 12.2646 94.2425 13.0299C95.3359 13.7797 96.8041 14.2951 98.6473 14.5763C100.147 14.795 101.31 15.0761 102.138 15.4198C102.966 15.7634 103.38 16.3257 103.38 17.1067C103.38 17.6534 103.169 18.1142 102.747 18.4891C102.341 18.8483 101.818 19.1217 101.178 19.3091C100.553 19.4809 99.8969 19.5668 99.2096 19.5668C97.9288 19.5668 96.8432 19.3091 95.9529 18.7936C95.1407 18.3151 94.3555 17.6479 93.5972 16.7923C93.5388 16.7264 93.4805 16.6594 93.4225 16.5913L91.7824 18.6531C92.7039 19.7777 93.7739 20.5899 94.9922 21.0898C96.2106 21.5896 97.5773 21.8395 99.0924 21.8395C100.514 21.8395 101.74 21.6286 102.771 21.2069C103.817 20.7696 104.622 20.1604 105.184 19.3794C105.746 18.5984 106.028 17.6846 106.028 16.6381C106.028 15.8727 105.848 15.2323 105.489 14.7169C105.129 14.2014 104.645 13.7797 104.036 13.4517ZM128.974 18.9067C129.119 18.9067 129.236 19.0239 129.236 19.1685V21.6052C129.236 21.7498 129.119 21.8671 128.974 21.8671H116.931C116.787 21.8671 116.67 21.7498 116.67 21.6052V5.20443C116.67 5.0598 116.787 4.94256 116.931 4.94256H119.462C119.606 4.94256 119.724 5.0598 119.724 5.20443V18.9067H128.974ZM119.462 19.1685V5.20443H116.931V21.6052H128.974V19.1685H119.462ZM145.437 9.04275C145.581 9.04275 145.698 9.16 145.698 9.30462V21.6052C145.698 21.7498 145.581 21.8671 145.437 21.8671H143C142.855 21.8671 142.738 21.7498 142.738 21.6052V20.2453C142.511 20.4587 142.248 20.6642 141.95 20.8625C141.414 21.22 140.8 21.5182 140.111 21.7587C140.109 21.7593 140.107 21.7599 140.105 21.7605C139.406 21.9882 138.668 22.1014 137.892 22.1014C136.558 22.1014 135.373 21.8198 134.344 21.2484C133.319 20.6789 132.512 19.8878 131.925 18.8783L131.924 18.8755C131.353 17.8636 131.07 16.7172 131.07 15.4432C131.07 14.1519 131.369 13.0028 131.975 12.0043C132.577 10.9948 133.409 10.2048 134.464 9.63637L134.466 9.63558C135.54 9.06601 136.77 8.78503 138.15 8.78503C139.26 8.78503 140.259 8.99412 141.143 9.41884C141.774 9.70614 142.308 10.0304 142.738 10.3945V9.30462C142.738 9.16 142.855 9.04275 143 9.04275H145.437ZM143 11.015C142.919 10.923 142.832 10.833 142.738 10.745C142.306 10.3399 141.738 9.97689 141.032 9.65607C140.188 9.24995 139.228 9.0469 138.15 9.0469C136.807 9.0469 135.619 9.32024 134.589 9.86694C133.573 10.4136 132.777 11.1712 132.199 12.1396C131.621 13.0924 131.332 14.1936 131.332 15.4432C131.332 16.6772 131.605 17.7784 132.152 18.7468C132.714 19.7152 133.487 20.4728 134.471 21.0195C135.455 21.5662 136.596 21.8395 137.892 21.8395C138.642 21.8395 139.353 21.7302 140.024 21.5115C140.696 21.2772 141.289 20.9882 141.805 20.6446C142.177 20.3966 142.488 20.1404 142.738 19.8761C142.834 19.7742 142.922 19.6711 143 19.5668V21.6052H145.437V9.30462H143V11.015ZM140.749 12.0682L140.746 12.0671C140.104 11.7311 139.335 11.558 138.431 11.558C137.561 11.558 136.798 11.7303 136.138 12.0678C135.49 12.4066 134.979 12.8676 134.599 13.4517C134.237 14.031 134.054 14.6923 134.054 15.4432C134.054 16.1941 134.237 16.8554 134.599 17.4347C134.979 18.0193 135.491 18.4887 136.14 18.8432C136.8 19.1799 137.562 19.3518 138.431 19.3518C139.334 19.3518 140.103 19.1789 140.745 18.8433C141.411 18.4882 141.922 18.019 142.286 17.4365C142.648 16.8567 142.832 16.1949 142.832 15.4432C142.832 14.6915 142.648 14.0297 142.286 13.4499C141.922 12.8682 141.412 12.4075 140.749 12.0682ZM140.868 19.0748C140.18 19.4341 139.368 19.6137 138.431 19.6137C137.525 19.6137 136.721 19.4341 136.018 19.0748C135.331 18.6999 134.784 18.2001 134.378 17.5753C133.987 16.9505 133.792 16.2398 133.792 15.4432C133.792 14.6466 133.987 13.9359 134.378 13.3111C134.784 12.6863 135.331 12.1943 136.018 11.835C136.721 11.4758 137.525 11.2961 138.431 11.2961C139.368 11.2961 140.18 11.4758 140.868 11.835C141.571 12.1943 142.117 12.6863 142.508 13.3111C142.898 13.9359 143.094 14.6466 143.094 15.4432C143.094 16.2398 142.898 16.9505 142.508 17.5753C142.117 18.2001 141.571 18.6999 140.868 19.0748ZM153.671 21.5157L153.67 21.515C153.055 21.2313 152.522 20.9186 152.073 20.5755V21.5349C152.073 21.6795 151.956 21.7968 151.811 21.7968H149.398C149.253 21.7968 149.136 21.6795 149.136 21.5349V4.26724C149.136 4.12261 149.253 4.00537 149.398 4.00537H151.811C151.956 4.00537 152.073 4.12261 152.073 4.26724V10.3901C152.509 10.032 153.042 9.70918 153.667 9.41933C154.549 8.99527 155.517 8.78503 156.567 8.78503C157.871 8.78503 159.047 9.06694 160.089 9.6365C161.129 10.1894 161.96 10.9712 162.577 11.9783C163.199 12.9771 163.507 14.1272 163.507 15.4198C163.507 16.712 163.199 17.8688 162.579 18.8821C161.976 19.8916 161.145 20.6816 160.089 21.25C159.031 21.8195 157.84 22.1014 156.521 22.1014C155.487 22.1014 154.536 21.9075 153.671 21.5157ZM162.355 18.7468C162.948 17.7784 163.245 16.6694 163.245 15.4198C163.245 14.1702 162.948 13.069 162.355 12.1162C161.761 11.1478 160.964 10.398 159.965 9.86694C158.965 9.32024 157.833 9.0469 156.567 9.0469C155.552 9.0469 154.623 9.24995 153.779 9.65607C153.083 9.97856 152.514 10.3383 152.073 10.7354C151.98 10.8191 151.893 10.9045 151.811 10.9916V4.26724H149.398V21.5349H151.811V20.012C151.894 20.0898 151.982 20.1663 152.073 20.2415C152.533 20.6193 153.102 20.9646 153.779 21.2772C154.607 21.6521 155.521 21.8395 156.521 21.8395C157.801 21.8395 158.949 21.5662 159.965 21.0195C160.98 20.4728 161.777 19.7152 162.355 18.7468ZM158.534 12.0448L158.531 12.0437C157.888 11.7074 157.127 11.5346 156.239 11.5346C155.369 11.5346 154.599 11.7068 153.921 12.0452C153.258 12.3845 152.74 12.8454 152.36 13.4282C151.999 14.0076 151.815 14.6689 151.815 15.4198C151.815 16.1701 151.998 16.8399 152.361 17.4359C152.741 18.0186 153.259 18.4875 153.923 18.8421C154.6 19.18 155.37 19.3518 156.239 19.3518C157.126 19.3518 157.887 19.1793 158.53 18.8433C159.196 18.4883 159.707 18.0191 160.071 17.4365L160.072 17.4351C160.45 16.8388 160.64 16.1694 160.64 15.4198C160.64 14.6702 160.45 14.0097 160.073 13.4304C160.072 13.4291 160.072 13.4278 160.071 13.4265C159.707 12.8447 159.197 12.3841 158.534 12.0448ZM158.653 19.0748C157.965 19.4341 157.161 19.6137 156.239 19.6137C155.334 19.6137 154.521 19.4341 153.803 19.0748C153.1 18.6999 152.545 18.2001 152.139 17.5753C151.749 16.9349 151.554 16.2164 151.554 15.4198C151.554 14.6232 151.749 13.9125 152.139 13.2877C152.545 12.6629 153.1 12.1709 153.803 11.8116C154.521 11.4523 155.334 11.2727 156.239 11.2727C157.161 11.2727 157.965 11.4523 158.653 11.8116C159.356 12.1709 159.902 12.6629 160.293 13.2877C160.699 13.9125 160.902 14.6232 160.902 15.4198C160.902 16.2164 160.699 16.9349 160.293 17.5753C159.902 18.2001 159.356 18.6999 158.653 19.0748ZM175.559 12.7747C175.468 12.8855 175.304 12.9022 175.192 12.8121C174.655 12.3789 174.008 12.0169 173.249 11.7284C172.491 11.4405 171.789 11.3003 171.139 11.3003C170.718 11.3003 170.271 11.3379 169.799 11.414C169.36 11.4873 168.988 11.6249 168.679 11.8217L168.676 11.8234C168.432 11.9748 168.31 12.1906 168.308 12.5087C168.322 12.7788 168.441 13.0033 168.693 13.1935C168.99 13.4045 169.388 13.5881 169.898 13.7383C170.421 13.8767 170.999 14.0077 171.632 14.1313C172.264 14.2421 172.889 14.3844 173.506 14.5583C174.145 14.7341 174.717 14.959 175.221 15.2347C175.753 15.5017 176.184 15.8637 176.507 16.3216C176.842 16.781 177.001 17.3453 177.001 17.997C177.001 18.8819 176.732 19.647 176.188 20.2766C175.67 20.878 174.982 21.3307 174.134 21.6403C173.291 21.9486 172.377 22.1014 171.397 22.1014C170.17 22.1014 169.012 21.934 167.922 21.5977L167.918 21.5963C166.825 21.2375 165.902 20.6165 165.153 19.7366C165.06 19.628 165.072 19.4654 165.179 19.3708L166.819 17.9182C166.922 17.8263 167.079 17.8311 167.177 17.929C167.684 18.4353 168.28 18.8385 168.969 19.1383C169.65 19.4192 170.434 19.5627 171.327 19.5627C171.731 19.5627 172.161 19.5253 172.616 19.4497C173.071 19.3613 173.44 19.2169 173.732 19.0234C173.988 18.839 174.111 18.5991 174.111 18.2782C174.111 18.0161 173.999 17.8049 173.735 17.6292C173.442 17.4339 173.038 17.2718 172.51 17.1511C172.508 17.1506 172.506 17.15 172.503 17.1495C171.964 17.0108 171.385 16.8872 170.766 16.7789C170.763 16.7785 170.761 16.7779 170.758 16.7774C169.845 16.5884 168.985 16.3676 168.179 16.1148C168.177 16.1142 168.175 16.1135 168.173 16.1129C167.36 15.8364 166.69 15.4338 166.172 14.8991C165.627 14.337 165.371 13.5609 165.371 12.6082C165.371 11.8104 165.637 11.1144 166.166 10.534L166.169 10.5309C166.702 9.96426 167.396 9.53756 168.241 9.24504C169.1 8.93715 170.044 8.78503 171.069 8.78503C171.712 8.78503 172.385 8.85729 173.086 9.00053C173.809 9.12932 174.5 9.34637 175.16 9.65173C175.829 9.94575 176.397 10.3401 176.86 10.8363C176.95 10.9324 176.954 11.08 176.871 11.1815L175.559 12.7747ZM175.052 9.89037C174.412 9.59359 173.74 9.38272 173.037 9.25776C172.35 9.11719 171.694 9.0469 171.069 9.0469C170.069 9.0469 169.156 9.19529 168.328 9.49206C167.515 9.77322 166.859 10.1793 166.36 10.7104C165.875 11.2415 165.633 11.8741 165.633 12.6082C165.633 13.5142 165.875 14.217 166.36 14.7169C166.844 15.2167 167.476 15.5994 168.257 15.8649C169.054 16.1149 169.905 16.3335 170.811 16.521C171.436 16.6303 172.022 16.7553 172.568 16.8958C173.115 17.0208 173.553 17.1926 173.881 17.4113C174.209 17.63 174.373 17.9189 174.373 18.2782C174.373 18.6843 174.209 19.0045 173.881 19.2388C173.553 19.4575 173.146 19.6137 172.662 19.7074C172.194 19.7855 171.748 19.8246 171.327 19.8246C170.405 19.8246 169.585 19.6762 168.867 19.3794C168.148 19.067 167.523 18.6453 166.992 18.1142L165.352 19.5668C165.405 19.6294 165.46 19.6905 165.515 19.7503C165.518 19.7544 165.522 19.7585 165.526 19.7626C166.212 20.5028 167.036 21.0311 168 21.3475C169.062 21.6755 170.194 21.8395 171.397 21.8395C172.35 21.8395 173.232 21.6911 174.045 21.3943C174.857 21.0976 175.505 20.668 175.989 20.1057C176.489 19.5278 176.739 18.8249 176.739 17.997C176.739 17.3879 176.591 16.8802 176.294 16.4741C175.997 16.0524 175.599 15.7165 175.099 15.4666C174.615 15.2011 174.06 14.9824 173.435 14.8106C172.826 14.6388 172.209 14.4982 171.584 14.3889C170.944 14.2639 170.358 14.1311 169.827 13.9906C169.296 13.8344 168.867 13.6391 168.539 13.4048C168.226 13.1705 168.062 12.8737 168.047 12.5145C168.047 12.1084 168.211 11.8038 168.539 11.6007C168.882 11.3821 169.288 11.2337 169.757 11.1556C170.241 11.0775 170.702 11.0384 171.139 11.0384C171.827 11.0384 172.561 11.1868 173.342 11.4836C174.123 11.7804 174.794 12.1552 175.357 12.6082L176.669 11.015C176.231 10.5464 175.692 10.1715 175.052 9.89037Z" fill="black"/>
<path fill-rule="evenodd" clip-rule="evenodd" d="M4.35166 0.195068C1.9483 0.195068 0 2.14337 0 4.54673V22.4756C0 24.8789 1.9483 26.8272 4.35166 26.8272H22.2805C24.6838 26.8272 26.6321 24.8789 26.6321 22.4756V4.54673C26.6321 2.14337 24.6838 0.195068 22.2805 0.195068H4.35166ZM5.30903 6.0259L11.5493 16.8786L12.0631 9.94137L17.7933 6.02811L5.30903 6.0259ZM21.3231 20.6475L15.0829 9.79473L14.569 16.732L8.83882 20.6453L21.3231 20.6475Z" fill="#459F6F"/>
</svg>
